<svg width="152" height="100" viewBox="0 0 152 100" fill="none" xmlns="http://www.w3.org/2000/svg">
<path d="M45.2209 99.0361C57.5422 99.0361 67.5306 88.9939 67.5306 76.6062C67.5306 64.2185 57.5422 54.1763 45.2209 54.1763C32.8995 54.1763 22.9111 64.2185 22.9111 76.6062C22.9111 88.9939 32.8995 99.0361 45.2209 99.0361Z" fill="#F2F2F2"/>
<path d="M152 99.0566H3.75427V99.4032H152V99.0566Z" fill="#2F2E41"/>
<path d="M44.2763 76.7486C44.2763 93.5107 34.3647 99.3642 22.1389 99.3642C21.8543 99.3642 21.5712 99.3611 21.2896 99.3533C20.7234 99.341 20.1618 99.3162 19.6079 99.276C8.57309 98.4917 0 92.3366 0 76.7486C0 60.6177 20.5003 40.2622 22.0466 38.7508C22.0474 38.75 22.0485 38.7494 22.0497 38.7493C22.1082 38.6905 22.1389 38.6611 22.1389 38.6611C22.1389 38.6611 44.2763 59.985 44.2763 76.7486Z" fill="#006747"/>
<path d="M21.3308 96.7994L29.4285 85.4251L21.3108 98.0477L21.2893 99.3533C20.7231 99.3409 20.1615 99.3162 19.6076 99.276L20.48 82.5061L20.4738 82.3762L20.4892 82.3515L20.5708 80.7674L12.4331 68.1123L20.5954 79.5794L20.6154 79.9151L21.2755 67.2445L14.3087 54.1687L21.3601 65.0186L22.0463 38.7508L22.0494 38.6611V38.7493L21.9355 59.4637L28.87 51.2513L21.9063 61.2472L21.7232 72.5921L28.1992 61.7051L21.6955 74.2628L21.5939 80.5694L30.9948 65.4146L21.5586 82.7707L21.3308 96.7994Z" fill="#F2F2F2"/>
<path d="M123.613 31.205L120.536 27.9565C120.536 27.9565 117.151 22.8518 114.689 24.244C112.227 25.6362 118.228 28.8847 118.228 28.8847L121.305 33.9894L123.613 31.205Z" fill="#A0616A"/>
<path d="M133.306 94.1636C133.306 94.1636 135.614 98.6496 133.922 98.9589C132.229 99.2683 123.921 99.7324 123.767 99.2683C123.613 98.8043 122.382 97.2574 123.305 96.6386C124.228 96.0198 127.921 95.5558 127.921 95.5558L129.152 94.3183L133.306 94.1636Z" fill="#2F2E41"/>
<path d="M134.537 50.3865C134.537 50.3865 139.46 56.5741 135.46 62.9163L134.537 73.5899C134.537 73.5899 136.229 88.2853 134.075 93.2353L133.768 94.9369H128.382L129.767 81.9431C129.767 81.9431 129.613 80.3962 129.152 80.0868C128.69 79.7774 121.151 63.071 121.151 63.071C121.151 63.071 122.382 60.7507 121.92 60.2866C121.459 59.8225 122.382 50.5412 122.843 50.2318C123.305 49.9225 134.537 50.3865 134.537 50.3865Z" fill="#2F2E41"/>
<path d="M125.767 92.7711L125.151 96.329L131.152 96.0196L130.382 92.1523L125.767 92.7711Z" fill="#A0616A"/>
<path d="M126.844 29.6583C129.393 29.6583 131.46 27.5806 131.46 25.0176C131.46 22.4547 129.393 20.377 126.844 20.377C124.295 20.377 122.228 22.4547 122.228 25.0176C122.228 27.5806 124.295 29.6583 126.844 29.6583Z" fill="#A0616A"/>
<path d="M130.998 25.791L131.46 31.3598L126.536 33.6802C126.536 33.6802 127.382 28.4981 126.767 27.1059L130.998 25.791Z" fill="#A0616A"/>
<path d="M125.921 33.3704L126.382 31.5142L132.69 29.1938C132.69 29.1938 133.306 29.1938 133.152 30.2767C132.998 31.3595 132.998 31.2048 132.998 31.2048C132.998 31.2048 135.152 32.1329 135.306 33.6798C135.46 35.2267 137.922 35.6908 137.768 38.0111C137.614 40.3314 136.845 41.569 136.845 41.569C136.845 41.569 137.614 43.4252 136.383 44.508C136.383 44.508 135.152 46.6737 135.768 48.2206C136.383 49.7675 137.152 52.3972 135.46 51.9331C133.767 51.469 122.074 50.6956 122.074 50.6956C122.074 50.6956 120.382 44.3534 122.228 42.033C122.228 42.033 122.228 40.6408 123.613 37.8564C124.997 35.072 125.921 33.3704 125.921 33.3704Z" fill="#575A89"/>
<path d="M134.075 50.8508C134.075 50.8508 132.075 59.3587 129.613 60.2868C129.613 60.2868 129.152 66.4744 126.536 66.165C123.921 65.8556 126.536 60.2868 126.536 60.2868L129.459 49.6133L134.075 50.8508Z" fill="#A0616A"/>
<path d="M126.228 33.8347C126.228 33.8347 123.92 30.1222 123.305 30.741C122.689 31.3597 119.612 33.216 119.766 34.4535C119.92 35.691 121.305 35.691 121.305 35.691L124.536 38.166L126.228 33.8347Z" fill="#575A89"/>
<path d="M122.997 61.5239L121.151 62.8583L119.92 76.0647C119.92 76.0647 124.382 94.0086 125.613 94.1633C126.844 94.318 131.921 94.318 131.767 93.8539C131.614 93.3898 130.844 91.5336 130.844 91.0695C130.844 90.6054 129.24 86.8942 129.24 86.8942L127.152 78.2303L127.613 71.424L122.997 61.5239Z" fill="#2F2E41"/>
<path d="M125.305 95.0915C125.305 95.0915 131.767 93.0806 132.075 93.5446C132.383 94.0087 134.435 98.6859 131.563 99.2091C128.69 99.7322 118.381 100.66 118.381 99.2681C118.381 97.8759 118.689 96.9478 119.612 96.9478C120.536 96.9478 124.69 94.9368 124.997 94.4728C125.305 94.0087 125.305 95.0915 125.305 95.0915Z" fill="#2F2E41"/>
<path d="M131.221 25.3227C131.264 25.2362 131.279 25.1382 131.263 25.0428C131.248 24.9473 131.202 24.8593 131.134 24.7913C131.065 24.7233 130.977 24.6788 130.882 24.6643C130.787 24.6497 130.69 24.6658 130.604 24.7102L130.596 24.7149C130.462 24.7968 130.355 24.9166 130.288 25.0593C130.222 25.2021 130.198 25.3614 130.221 25.5175C129.666 24.9609 130.075 23.8447 129.475 23.3371C129.198 23.1021 128.747 23.0504 128.605 22.715C128.522 22.5197 128.578 22.2883 128.505 22.0891C128.397 21.7933 128.05 21.6698 127.739 21.6232C126.764 21.477 125.777 21.7259 124.822 21.9728C124.471 22.0636 124.102 22.1645 123.846 22.4229C123.576 22.6951 123.483 23.0906 123.317 23.4368C123.152 23.783 122.069 23.7518 121.69 23.7028C121.558 23.3266 122.531 23.2983 122.61 22.9076C122.827 21.8398 122.071 20.7043 122.442 19.6801C122.666 19.063 123.249 18.6545 123.837 18.3676C125.469 17.5787 127.332 17.4188 129.074 17.9182C129.251 17.9576 129.417 18.0381 129.558 18.1534C129.781 18.3633 129.823 18.7002 129.972 18.9689C130.311 19.581 131.116 19.7265 131.658 20.1663C132.48 20.8324 132.573 22.0351 132.599 23.096C132.613 23.6303 132.622 24.1855 132.405 24.6731C132.187 25.1608 131.671 25.5581 131.149 25.4559C131.174 25.4156 131.198 25.3705 131.221 25.3227Z" fill="#2F2E41"/>
<path d="M130.418 35.3421C131.014 34.9265 131.73 34.7212 132.454 34.7582C133.178 34.7951 133.869 35.0724 134.42 35.5466C135.48 36.4525 136.621 37.7505 136.537 39.0941C136.384 41.5692 135.46 51.7786 134.229 51.9333C132.999 52.088 128.537 50.8505 128.537 50.0771C128.537 49.3036 129.614 48.3755 129.614 48.3755L128.306 40.487C128.141 39.5307 128.245 38.547 128.606 37.6468C128.967 36.7465 129.571 35.9655 130.349 35.3915C130.372 35.3749 130.395 35.3585 130.418 35.3421Z" fill="#575A89"/>
<path d="M113.264 0.000166513H76.2427C74.4562 0.000165825 72.7229 0.611242 71.3277 1.73295C69.9324 2.85465 68.9583 4.42024 68.5654 6.17235L49.8594 89.591C49.6553 90.5009 49.6517 91.4447 49.8488 92.3561C50.0459 93.2675 50.4389 94.1245 51.0003 94.8671C51.5617 95.6097 52.2778 96.2198 53.0985 96.6547C53.9192 97.0896 54.8246 97.3387 55.7512 97.3846L93.8092 99.2698C95.8471 99.3708 97.8519 98.7228 99.4495 97.4469C101.047 96.1709 102.128 94.3541 102.492 92.3355L113.103 33.3576L113.892 33.5844L115.923 22.4058L115.11 22.2016L118.072 5.73872C118.199 5.03358 118.169 4.30899 117.986 3.6166C117.802 2.9242 117.469 2.28106 117.01 1.73302C116.551 1.18497 115.977 0.745522 115.329 0.445996C114.682 0.14647 113.977 -0.00575779 113.264 0.000166513V0.000166513Z" fill="#3F3D56"/>
<path d="M81.1165 1.79834H76.795C75.554 1.79834 74.3502 2.22507 73.3836 3.00768C72.4171 3.7903 71.7458 4.88173 71.4813 6.10078L53.526 88.8389C53.4226 89.3152 53.4227 89.8084 53.5263 90.2847C53.6299 90.7611 53.8345 91.2093 54.1261 91.5988C54.4178 91.9884 54.7896 92.31 55.2163 92.5419C55.6429 92.7737 56.1143 92.9102 56.5982 92.9421L94.5331 95.4417C95.6033 95.5122 96.6619 95.1841 97.5068 94.5199C98.3517 93.8558 98.9238 92.9021 99.1139 91.8409L114.435 6.32302C114.534 5.76951 114.512 5.20087 114.368 4.65722C114.225 4.11357 113.965 3.60816 113.606 3.17666C113.247 2.74516 112.799 2.39808 112.292 2.15993C111.785 1.92177 111.232 1.79834 110.673 1.79834H106.573C106.177 1.79834 105.791 1.92985 105.476 2.17251C105.161 2.41517 104.934 2.75544 104.831 3.14064C104.74 3.48071 104.54 3.78111 104.262 3.99533C103.984 4.20956 103.644 4.32566 103.293 4.32566H83.8311C83.1451 4.32566 82.4845 4.06535 81.9812 3.59679C81.4779 3.12822 81.1691 2.48593 81.1165 1.79834L81.1165 1.79834Z" fill="#DA924E"/>
<path d="M108.285 23.1836H69.0311V23.378H108.285V23.1836Z" fill="#2F2E41"/>
<path d="M107.124 29.502H67.4839V29.6964H107.124V29.502Z" fill="#2F2E41"/>
<path d="M105.806 22.8755L104.914 21.6799L105.069 21.5635L105.839 22.5966L108.81 20.1533L108.932 20.3038L105.806 22.8755Z" fill="#2F2E41"/>
<path d="M100.681 51.0651L99.7894 49.8695L99.9441 49.7529L100.715 50.7862L103.685 48.3428L103.808 48.4934L100.681 51.0651Z" fill="#2F2E41"/>
<path d="M63.1353 51.081L63.1312 51.2754L104.222 52.1502L104.226 51.9558L63.1353 51.081Z" fill="#2F2E41"/>
<path d="M61.8784 56.8163L61.8739 57.0107L103.738 57.9828L103.742 57.7884L61.8784 56.8163Z" fill="#2F2E41"/>
<path opacity="0.1" d="M87.5463 73.3897C87.5463 75.8389 86.5786 78.1877 84.8561 79.9195C83.1336 81.6513 80.7974 82.6242 78.3614 82.6242C75.9254 82.6242 73.5891 81.6513 71.8666 79.9195C70.1441 78.1877 69.1764 75.8389 69.1764 73.3897C69.1764 73.2741 69.1783 73.1594 69.1832 73.0446C69.273 70.6271 70.3029 68.3416 72.0514 66.6795C73.7999 65.0175 76.1273 64.1117 78.5332 64.1569C80.939 64.2021 83.2311 65.1947 84.9166 66.9213C86.6021 68.6479 87.5464 70.9705 87.5463 73.3897V73.3897Z" fill="black"/>
<path opacity="0.1" d="M86.6761 76.9864C86.6761 77.1021 86.6742 77.2168 86.6694 77.3315C85.7784 79.2289 84.2713 80.7648 82.3963 81.6862C80.5212 82.6076 78.39 82.8596 76.3535 82.4007C74.317 81.9418 72.4966 80.7994 71.1921 79.1616C69.8876 77.5237 69.1766 75.4881 69.1764 73.3898C69.1764 73.2742 69.1783 73.1595 69.1832 73.0447C70.0741 71.1473 71.5812 69.6114 73.4563 68.69C75.3313 67.7686 77.4625 67.5166 79.499 67.9755C81.5355 68.4344 83.3559 69.5768 84.6604 71.2147C85.965 72.8525 86.6759 74.8881 86.6761 76.9864H86.6761Z" fill="black"/>
<path d="M76.5018 75.9302L73.2366 71.5531L74.01 70.9698L76.6701 74.5357L87.1431 65.9209L87.7553 66.6733L76.5018 75.9302Z" fill="#F2F2F2"/>
</svg>
