<svg width="138" height="103" viewBox="0 0 138 103" fill="none" xmlns="http://www.w3.org/2000/svg">
<g clip-path="url(#clip0_2_2036)">
<path d="M47.2427 93.0733H24.5829V93.3407H47.2427V93.0733Z" fill="#3F3D56"/>
<path d="M35.9036 93.4049C23.8359 93.4049 14.0181 83.6154 14.0181 71.5827C14.0181 59.55 23.8359 49.7606 35.9036 49.7606C47.9713 49.7606 57.7892 59.55 57.7892 71.5827C57.7892 83.6154 47.9713 93.4049 35.9036 93.4049ZM35.9036 50.0458C23.9936 50.0458 14.3042 59.7072 14.3042 71.5827C14.3042 83.4582 23.9936 93.1196 35.9036 93.1196C47.8136 93.1196 57.5031 83.4582 57.5031 71.5827C57.5031 59.7072 47.8136 50.0458 35.9036 50.0458Z" fill="#3F3D56"/>
<path d="M98.3994 24.1361H97.8397V8.84821C97.8397 7.68625 97.6102 6.53566 97.1642 5.46214C96.7183 4.38863 96.0646 3.4132 95.2406 2.59157C94.4166 1.76994 93.4383 1.11818 92.3617 0.673522C91.285 0.228859 90.1311 -4.1206e-06 88.9658 0H56.4822C55.3169 -4.3079e-06 54.1629 0.228858 53.0863 0.673521C52.0097 1.11818 51.0314 1.76994 50.2074 2.59157C49.3834 3.4132 48.7297 4.38862 48.2838 5.46214C47.8378 6.53566 47.6083 7.68625 47.6083 8.84821V92.7186C47.6083 93.8806 47.8378 95.0312 48.2838 96.1047C48.7297 97.1782 49.3834 98.1536 50.2074 98.9753C51.0314 99.7969 52.0097 100.449 53.0863 100.893C54.1629 101.338 55.3169 101.567 56.4822 101.567H88.9658C90.1311 101.567 91.285 101.338 92.3617 100.893C93.4383 100.449 94.4166 99.7969 95.2406 98.9753C96.0646 98.1536 96.7183 97.1782 97.1642 96.1047C97.6102 95.0312 97.8397 93.8806 97.8397 92.7186V35.0182H98.3994L98.3994 24.1361Z" fill="#3F3D56"/>
<path d="M138 101.293H41.8066V101.635H138V101.293Z" fill="#3F3D56"/>
<path d="M89.1142 2.51123H84.8741C85.0691 2.98791 85.1435 3.50509 85.0908 4.01721C85.0381 4.52933 84.8599 5.02067 84.5719 5.44795C84.284 5.87523 83.895 6.22534 83.4394 6.46742C82.9837 6.70951 82.4753 6.83615 81.959 6.83619H63.3496C62.8333 6.83615 62.3249 6.70951 61.8693 6.46742C61.4136 6.22534 61.0247 5.87523 60.7367 5.44795C60.4487 5.02067 60.2705 4.52933 60.2178 4.01721C60.1651 3.50509 60.2396 2.98791 60.4346 2.51123H56.4742C55.604 2.51123 54.7422 2.68214 53.9382 3.01421C53.1342 3.34628 52.4037 3.833 51.7883 4.44659C51.1729 5.06017 50.6848 5.7886 50.3517 6.59029C50.0187 7.39198 49.8473 8.25122 49.8473 9.11896V92.8663C49.8473 93.7341 50.0187 94.5933 50.3517 95.395C50.6848 96.1967 51.1729 96.9251 51.7883 97.5387C52.4036 98.1523 53.1342 98.639 53.9382 98.9711C54.7422 99.3032 55.604 99.4741 56.4742 99.4741H89.1142C89.9845 99.4741 90.8463 99.3032 91.6503 98.9711C92.4543 98.639 93.1848 98.1523 93.8002 97.5387C94.4156 96.9251 94.9037 96.1967 95.2368 95.395C95.5698 94.5933 95.7412 93.7341 95.7412 92.8663V9.11897C95.7412 8.25123 95.5698 7.39198 95.2368 6.59029C94.9037 5.7886 94.4156 5.06017 93.8002 4.44659C93.1848 3.833 92.4543 3.34628 91.6503 3.01421C90.8463 2.68214 89.9845 2.51123 89.1142 2.51123V2.51123ZM88.4019 41.3622C88.4005 41.8157 88.2193 42.2503 87.8976 42.571C87.576 42.8916 87.1402 43.0724 86.6854 43.0737H78.3889C77.934 43.0724 77.4982 42.8916 77.1766 42.571C76.855 42.2503 76.6737 41.8157 76.6724 41.3622V40.9343C76.6737 40.4808 76.855 40.0462 77.1766 39.7255C77.4982 39.4048 77.934 39.2241 78.3889 39.2228H86.6854C87.1402 39.2241 87.576 39.4048 87.8976 39.7255C88.2193 40.0462 88.4005 40.4808 88.4019 40.9343V41.3622ZM89.3317 33.8029C89.3303 34.2564 89.149 34.691 88.8274 35.0116C88.5058 35.3323 88.07 35.5131 87.6151 35.5144H57.8622C57.4074 35.5131 56.9715 35.3323 56.6499 35.0116C56.3283 34.691 56.147 34.2564 56.1457 33.8029V33.375C56.147 32.9215 56.3283 32.4869 56.6499 32.1662C56.9715 31.8455 57.4074 31.6648 57.8622 31.6634H87.6151C88.07 31.6648 88.5058 31.8455 88.8274 32.1662C89.149 32.4869 89.3303 32.9215 89.3317 33.375V33.8029ZM89.3317 26.2436C89.3303 26.6971 89.149 27.1317 88.8274 27.4523C88.5058 27.773 88.07 27.9538 87.6151 27.9551H57.8622C57.4074 27.9538 56.9715 27.773 56.6499 27.4523C56.3283 27.1317 56.147 26.6971 56.1457 26.2436V25.8157C56.147 25.3622 56.3283 24.9276 56.6499 24.6069C56.9715 24.2862 57.4074 24.1055 57.8622 24.1041H87.6151C88.07 24.1055 88.5058 24.2862 88.8274 24.6069C89.149 24.9276 89.3303 25.3622 89.3317 25.8157V26.2436ZM89.3317 18.6843C89.3303 19.1378 89.149 19.5724 88.8274 19.893C88.5058 20.2137 88.07 20.3945 87.6151 20.3958H57.8622C57.4074 20.3945 56.9715 20.2137 56.6499 19.893C56.3283 19.5724 56.147 19.1378 56.1457 18.6843V18.2564C56.147 17.8029 56.3283 17.3683 56.6499 17.0476C56.9715 16.7269 57.4074 16.5462 57.8622 16.5448H87.6151C88.07 16.5462 88.5058 16.7269 88.8274 17.0476C89.149 17.3683 89.3303 17.8029 89.3317 18.2564V18.6843Z" fill="#DA924E"/>
<path d="M58.649 34.6587C59.202 34.6587 59.6503 34.2117 59.6503 33.6603C59.6503 33.1089 59.202 32.6619 58.649 32.6619C58.096 32.6619 57.6477 33.1089 57.6477 33.6603C57.6477 34.2117 58.096 34.6587 58.649 34.6587Z" fill="#D0CDE1"/>
<path d="M61.9392 34.6587C62.4922 34.6587 62.9405 34.2117 62.9405 33.6603C62.9405 33.1089 62.4922 32.6619 61.9392 32.6619C61.3862 32.6619 60.9379 33.1089 60.9379 33.6603C60.9379 34.2117 61.3862 34.6587 61.9392 34.6587Z" fill="#D0CDE1"/>
<path d="M65.229 34.6587C65.782 34.6587 66.2303 34.2117 66.2303 33.6603C66.2303 33.1089 65.782 32.6619 65.229 32.6619C64.676 32.6619 64.2277 33.1089 64.2277 33.6603C64.2277 34.2117 64.676 34.6587 65.229 34.6587Z" fill="#D0CDE1"/>
<path d="M68.5191 34.6587C69.0721 34.6587 69.5204 34.2117 69.5204 33.6603C69.5204 33.1089 69.0721 32.6619 68.5191 32.6619C67.9661 32.6619 67.5178 33.1089 67.5178 33.6603C67.5178 34.2117 67.9661 34.6587 68.5191 34.6587Z" fill="#D0CDE1"/>
<path d="M79.2473 42.218C79.8003 42.218 80.2486 41.771 80.2486 41.2196C80.2486 40.6682 79.8003 40.2212 79.2473 40.2212C78.6943 40.2212 78.246 40.6682 78.246 41.2196C78.246 41.771 78.6943 42.218 79.2473 42.218Z" fill="#D0CDE1"/>
<path d="M82.5372 42.218C83.0902 42.218 83.5385 41.771 83.5385 41.2196C83.5385 40.6682 83.0902 40.2212 82.5372 40.2212C81.9842 40.2212 81.5359 40.6682 81.5359 41.2196C81.5359 41.771 81.9842 42.218 82.5372 42.218Z" fill="#D0CDE1"/>
<path d="M85.8273 42.218C86.3803 42.218 86.8286 41.771 86.8286 41.2196C86.8286 40.6682 86.3803 40.2212 85.8273 40.2212C85.2743 40.2212 84.826 40.6682 84.826 41.2196C84.826 41.771 85.2743 42.218 85.8273 42.218Z" fill="#D0CDE1"/>
<path d="M115.723 8.55768H119.728V4.56409H115.723V8.55768Z" fill="#F2F2F2"/>
<path d="M114.865 9.55615H118.87V5.56256H114.865V9.55615Z" fill="#006747"/>
<path d="M111.003 6.98883H117.583V13.5497H111.003V6.98883ZM117.297 7.27409H111.289V13.2645H117.297V7.27409Z" fill="#3F3D56"/>
<path d="M41.4839 37.5113H37.4787V41.5049H41.4839V37.5113Z" fill="#F2F2F2"/>
<path d="M42.3422 36.5129H38.337V40.5065H42.3422V36.5129Z" fill="#006747"/>
<path d="M46.2045 39.0802H39.6245V32.5193H46.2045V39.0802ZM39.9106 38.7949H45.9184V32.8045H39.9106V38.7949Z" fill="#3F3D56"/>
<path d="M105.57 60.1676C105.57 60.1676 103.074 65.3516 104.738 65.559C106.402 65.7663 106.818 60.8934 106.818 60.8934L105.57 60.1676Z" fill="#FFB9B9"/>
<path d="M115.032 93.3451L113.369 96.2848L116.384 98.1663L117.104 94.695L115.032 93.3451Z" fill="#FFB9B9"/>
<path d="M114.321 96.6932C114.321 96.6932 113.408 95.2102 113.077 95.4584C112.747 95.7067 111.384 96.7823 111.384 96.7823L109.609 98.4775C109.609 98.4775 103.612 99.1098 107.423 101.205C111.233 103.3 113.339 101.563 113.339 101.563C113.339 101.563 118.677 101.84 118.591 100.355C118.505 98.8701 116.783 96.521 116.783 96.521C116.783 96.521 114.614 97.9713 114.321 96.6932Z" fill="#2F2E41"/>
<path opacity="0.1" d="M114.321 96.6932C114.321 96.6932 113.408 95.2102 113.077 95.4584C112.747 95.7067 111.384 96.7823 111.384 96.7823L109.609 98.4775C109.609 98.4775 103.612 99.1098 107.423 101.205C111.233 103.3 113.339 101.563 113.339 101.563C113.339 101.563 118.677 101.84 118.591 100.355C118.505 98.8701 116.783 96.521 116.783 96.521C116.783 96.521 114.614 97.9713 114.321 96.6932Z" fill="black"/>
<path d="M122.415 60.1157L120.855 78.9336C120.855 78.9336 120.803 90.1829 119.139 92.3601C117.476 94.5374 117.424 95.6261 117.424 95.6261L113.992 93.8635C113.992 93.8635 115.136 93.7598 114.616 93.0341C114.096 92.3083 112.537 93.0341 113.992 91.9973C115.448 90.9605 115.76 90.9265 115.396 90.4769C115.172 90.1918 115.012 89.8616 114.928 89.5089L115.864 77.8968L114.096 57.6792L122.415 60.1157Z" fill="#2F2E41"/>
<path opacity="0.1" d="M122.415 60.1157L120.855 78.9336C120.855 78.9336 120.803 90.1829 119.139 92.3601C117.476 94.5374 117.424 95.6261 117.424 95.6261L113.992 93.8635C113.992 93.8635 115.136 93.7598 114.616 93.0341C114.096 92.3083 112.537 93.0341 113.992 91.9973C115.448 90.9605 115.76 90.9265 115.396 90.4769C115.172 90.1918 115.012 89.8616 114.928 89.5089L115.864 77.8968L114.096 57.6792L122.415 60.1157Z" fill="black"/>
<path d="M118.151 93.3451L119.607 97.1813L123.766 95.626L121.167 92.9304L118.151 93.3451Z" fill="#FFB9B9"/>
<path d="M120.217 95.5321C120.217 95.5321 118.662 94.5635 118.468 94.951C118.274 95.3384 117.497 96.9849 117.497 96.9849L116.623 99.4062C116.623 99.4062 111.28 102.796 115.846 102.99C120.411 103.183 121.577 100.568 121.577 100.568C121.577 100.568 126.725 98.3408 125.948 96.9849C125.171 95.6289 122.451 94.2226 122.451 94.2226C122.451 94.2226 121.091 96.5975 120.217 95.5321Z" fill="#2F2E41"/>
<path d="M109.209 60.1676L108.377 77.4821C108.377 77.4821 112.432 88.9906 115.968 90.8568C115.968 90.8568 115.968 93.1378 116.8 93.5525C117.048 93.6801 117.267 93.856 117.446 94.0697C117.624 94.2834 117.758 94.5306 117.839 94.7967L122.415 93.6562C122.415 93.6562 121.271 92.5157 121.687 91.9973C122.103 91.4789 120.335 90.3384 120.335 90.3384L115.76 79.2447C115.76 79.2447 115.032 78.9336 114.824 77.8968C114.616 76.86 114.2 76.86 115.24 76.6527C116.28 76.4453 116.28 75.4085 116.28 75.4085L119.711 59.6492L109.209 60.1676Z" fill="#2F2E41"/>
<path d="M112.953 33.0034C115.25 33.0034 117.112 31.1466 117.112 28.8562C117.112 26.5657 115.25 24.709 112.953 24.709C110.656 24.709 108.793 26.5657 108.793 28.8562C108.793 31.1466 110.656 33.0034 112.953 33.0034Z" fill="#FFB9B9"/>
<path d="M116.644 29.1154C116.644 29.1154 116.956 34.403 117.372 34.9214C117.787 35.4398 113.004 35.3361 113.004 35.3361C113.004 35.3361 113.316 30.8779 113.004 30.4632C112.692 30.0485 116.644 29.1154 116.644 29.1154Z" fill="#FFB9B9"/>
<path d="M118.047 33.3145C118.047 33.3145 114.096 32.8997 112.64 34.1439C112.175 34.5398 111.677 34.8952 111.151 35.2062C110.712 35.4688 110.346 35.8375 110.087 36.2781C109.828 36.7187 109.684 37.2172 109.669 37.7277L108.897 61.308C108.897 61.308 120.647 60.2712 122.83 61.308C122.83 61.308 122.934 58.9234 123.142 58.6124C123.294 58.3856 123.556 49.3428 123.687 44.4583C123.777 41.6995 122.799 39.012 120.957 36.9518C120.327 36.2563 119.623 35.6732 118.879 35.3881C118.879 35.3881 119.087 33.4181 118.047 33.3145Z" fill="#575A89"/>
<path d="M111.705 35.3879C111.119 35.5415 110.593 35.8641 110.19 36.3152C109.788 36.7664 109.529 37.3259 109.445 37.9235L107.961 48.4516L105.882 56.8497C105.882 56.8497 104.842 57.7828 105.258 58.3012C105.674 58.8196 104.738 60.9969 104.738 60.9969L107.337 61.8263C107.337 61.8263 107.649 59.649 108.169 59.5453C108.626 59.4542 113.741 45.8304 114.974 42.53C115.144 42.0749 115.24 41.8161 115.24 41.8161C115.24 41.8161 115.032 34.8695 111.705 35.3879Z" fill="#575A89"/>
<path opacity="0.1" d="M115.188 41.7644L108.897 58.7336C108.897 58.7336 114.98 47.2594 115.188 41.7644Z" fill="black"/>
<path d="M115.125 30.0783C114.773 30.0574 114.43 30.1759 114.081 30.2221C112.831 30.3876 111.531 29.4833 111.255 28.2568C111.233 28.0934 111.184 27.9348 111.11 27.7872C110.918 27.4741 110.48 27.4144 110.119 27.4864C109.758 27.5584 109.415 27.7269 109.048 27.7462C108.48 27.7759 107.935 27.4273 107.632 26.9473C107.346 26.4522 107.225 25.8795 107.285 25.3113L107.557 25.5961C107.668 25.3628 107.71 25.1032 107.68 24.8469C107.824 24.8086 107.976 24.8079 108.121 24.8447C108.265 24.8816 108.398 24.9549 108.506 25.0576C108.746 25.0831 108.565 24.6137 108.743 24.4515C108.83 24.3984 108.933 24.3791 109.034 24.3974C109.544 24.4023 109.957 24.0129 110.36 23.6994C111.057 23.1574 111.872 22.7866 112.739 22.617C113.316 22.5048 113.929 22.4868 114.476 22.7009C114.917 22.8985 115.316 23.1802 115.649 23.5303C116.505 24.3511 117.263 25.3155 117.619 26.4452C117.908 27.3705 117.917 28.3606 117.642 29.2906C117.499 29.7735 117.066 31.4275 116.433 31.466C115.638 31.5144 116.115 30.1372 115.125 30.0783Z" fill="#2F2E41"/>
<rect x="54" y="13" width="36" height="16" fill="#DA924E"/>
<path d="M45.2763 79.0875C45.2763 95.8496 35.3647 101.703 23.1389 101.703C22.8543 101.703 22.5712 101.7 22.2896 101.692C21.7234 101.68 21.1618 101.655 20.6079 101.615C9.57309 100.831 1 94.6755 1 79.0875C1 62.9565 21.5003 42.601 23.0466 41.0897C23.0474 41.0888 23.0485 41.0883 23.0497 41.0882C23.1082 41.0294 23.1389 41 23.1389 41C23.1389 41 45.2763 62.3239 45.2763 79.0875Z" fill="#006747"/>
<path d="M22.3313 99.1383L30.429 87.764L22.3113 100.387L22.2898 101.692C21.7236 101.68 21.162 101.655 20.6081 101.615L21.4805 84.845L21.4743 84.7151L21.4897 84.6903L21.5713 83.1063L13.4336 70.4512L21.5959 81.9183L21.6159 82.254L22.2759 69.5834L15.3091 56.5076L22.3606 67.3574L23.0468 41.0897L23.0499 41V41.0882L22.936 61.8026L29.8705 53.5901L22.9068 63.5861L22.7237 74.931L29.1997 64.044L22.696 76.6016L22.5944 82.9083L31.9953 67.7534L22.5591 85.1095L22.3313 99.1383Z" fill="#F2F2F2"/>
</g>
<defs>
<clipPath id="clip0_2_2036">
<rect width="138" height="103" fill="white"/>
</clipPath>
</defs>
</svg>
